<svg width="1200" height="630" viewBox="0 0 1200 630" xmlns="http://www.w3.org/2000/svg"><mask id="satori_om-id"><rect x="0" y="0" width="1200" height="630" fill="#fff"/></mask><mask id="satori_om-id-0"><rect x="0" y="0" width="1200" height="630" fill="#fff"/></mask><rect x="0" y="0" width="1200" height="630" fill="#f2f2f2"/><mask id="satori_om-id-0-0"><rect x="0" y="0" width="1200" height="441" fill="#fff"/></mask><mask id="satori_om-id-0-0-0"><rect x="40" y="136" width="1120" height="36" fill="#fff"/></mask><path fill="#8e8e8e" d="M47.5 164.9L47.5 164.9Q46.7 164.9 46.2 164.6Q45.7 164.2 45.3 163.3L45.3 163.3L40.7 151.3Q40.6 150.8 40.6 150.4L40.6 150.4Q40.6 149.8 41.0 149.4Q41.5 149.0 42.2 149.0L42.2 149.0Q43.3 149.0 43.7 150.2L43.7 150.2L47.5 161.6L47.5 161.6L51.4 150.2Q51.8 149.0 52.8 149.0L52.8 149.0Q53.5 149.0 54.0 149.4Q54.4 149.8 54.4 150.4L54.4 150.4Q54.4 150.9 54.2 151.3L54.2 151.3L49.7 163.3Q49.4 164.2 48.8 164.6Q48.3 164.9 47.5 164.9ZM59.5 146.4Q59.0 146.9 58.2 146.9Q57.5 146.9 56.9 146.4Q56.4 145.9 56.4 145.1L56.4 145.1Q56.4 144.3 56.9 143.8Q57.5 143.3 58.2 143.3L58.2 143.3Q59.0 143.3 59.5 143.8Q60.1 144.3 60.1 145.1L60.1 145.1Q60.1 145.9 59.5 146.4ZM59.4 164.5Q58.9 164.9 58.2 164.9Q57.5 164.9 57.1 164.5Q56.6 164.0 56.6 163.3L56.6 163.3L56.6 150.7Q56.6 149.9 57.1 149.4Q57.5 149.0 58.2 149.0Q58.9 149.0 59.4 149.4Q59.8 149.9 59.8 150.7L59.8 150.7L59.8 163.3Q59.8 164.0 59.4 164.5ZM69.7 165.0L69.7 165.0Q66.2 165.0 64.3 162.9Q62.4 160.8 62.4 157.0L62.4 157.0Q62.4 153.4 64.3 151.2Q66.2 149.0 69.5 149.0L69.5 149.0Q72.6 149.0 74.5 151.0Q76.4 153.0 76.4 156.1L76.4 156.1Q76.4 156.9 76.0 157.3Q75.6 157.8 74.9 157.8L74.9 157.8L65.5 157.8L65.5 157.8Q65.5 159.9 66.7 161.2Q67.8 162.4 69.6 162.4L69.6 162.4Q70.9 162.4 71.8 161.9Q72.8 161.4 73.6 160.2L73.6 160.2Q74.1 159.6 74.7 159.6L74.7 159.6Q75.3 159.6 75.7 160.0Q76.1 160.3 76.1 160.9L76.1 160.9Q76.1 161.3 75.8 161.8L75.8 161.8Q75.1 163.3 73.5 164.1Q71.9 165.0 69.7 165.0ZM65.6 155.5L65.6 155.5L73.3 155.5Q73.2 153.7 72.2 152.6Q71.1 151.5 69.5 151.5L69.5 151.5Q67.8 151.5 66.8 152.6Q65.7 153.7 65.6 155.5ZM80.5 164.9L80.5 164.9Q79.7 164.9 79.3 164.5Q78.9 164.0 78.9 163.3L78.9 163.3L78.9 150.6Q78.9 149.9 79.3 149.4Q79.7 149.0 80.4 149.0L80.4 149.0Q81.0 149.0 81.5 149.4Q81.9 149.9 81.9 150.6L81.9 150.6L81.9 151.9L82.0 151.9Q82.3 150.6 83.2 149.8Q84.2 149.0 85.3 149.0L85.3 149.0Q86.2 149.0 86.6 149.4L86.6 149.4Q87.0 149.7 87.0 150.5L87.0 150.5Q87.0 151.2 86.5 151.6L86.5 151.6Q86.1 152.0 85.1 152.0L85.1 152.0Q83.5 152.0 82.8 153.0Q82.0 153.9 82.0 155.4L82.0 155.4L82.0 163.3Q82.0 164.0 81.6 164.5Q81.2 164.9 80.5 164.9ZM90.3 164.9L90.3 164.9Q89.6 164.9 89.2 164.5Q88.7 164.0 88.7 163.3L88.7 163.3L88.7 150.6Q88.7 149.8 89.1 149.4Q89.5 149.0 90.2 149.0Q90.9 149.0 91.3 149.4Q91.8 149.9 91.8 150.6L91.8 150.6L91.8 151.8L91.8 151.8Q93.2 149.0 96.7 149.0L96.7 149.0Q99.2 149.0 100.6 150.5Q102.0 152.0 102.0 154.7L102.0 154.7L102.0 163.3Q102.0 164.0 101.6 164.5Q101.1 164.9 100.4 164.9L100.4 164.9Q99.7 164.9 99.3 164.5Q98.8 164.0 98.8 163.3L98.8 163.3L98.8 155.3Q98.8 153.5 98.0 152.6Q97.2 151.7 95.5 151.7L95.5 151.7Q93.9 151.7 92.9 152.8Q91.9 153.9 91.9 155.7L91.9 155.7L91.9 163.3Q91.9 164.0 91.4 164.5Q91.0 164.9 90.3 164.9ZM111.7 165.0L111.7 165.0Q108.2 165.0 106.3 162.9Q104.4 160.8 104.4 157.0L104.4 157.0Q104.4 153.4 106.3 151.2Q108.2 149.0 111.5 149.0L111.5 149.0Q114.6 149.0 116.5 151.0Q118.4 153.0 118.4 156.1L118.4 156.1Q118.4 156.9 118.0 157.3Q117.6 157.8 116.9 157.8L116.9 157.8L107.6 157.8L107.6 157.8Q107.6 159.9 108.7 161.2Q109.8 162.4 111.7 162.4L111.7 162.4Q112.9 162.4 113.9 161.9Q114.8 161.4 115.6 160.2L115.6 160.2Q116.1 159.6 116.8 159.6L116.8 159.6Q117.3 159.6 117.7 160.0Q118.1 160.3 118.1 160.9L118.1 160.9Q118.1 161.3 117.9 161.8L117.9 161.8Q117.1 163.3 115.5 164.1Q113.9 165.0 111.7 165.0ZM107.6 155.5L107.6 155.5L115.3 155.5Q115.2 153.7 114.2 152.6Q113.2 151.5 111.5 151.5L111.5 151.5Q109.9 151.5 108.8 152.6Q107.7 153.7 107.6 155.5ZM126.6 165.0L126.6 165.0Q124.3 165.0 122.7 164.1Q121.1 163.3 120.6 161.8L120.6 161.8Q120.4 161.5 120.4 161.2L120.4 161.2Q120.4 160.6 120.8 160.2Q121.2 159.9 121.8 159.9L121.8 159.9Q122.6 159.9 123.2 160.7L123.2 160.7Q123.8 161.7 124.6 162.1Q125.4 162.5 126.7 162.5L126.7 162.5Q128.1 162.5 128.9 162.0Q129.8 161.4 129.8 160.5L129.8 160.5Q129.8 159.7 129.2 159.3Q128.7 158.8 127.5 158.5L127.5 158.5L125.1 158.0Q120.6 156.9 120.6 153.6L120.6 153.6Q120.6 151.5 122.3 150.2Q124.0 149.0 126.7 149.0L126.7 149.0Q128.8 149.0 130.3 149.9Q131.9 150.8 132.2 152.2L132.2 152.2Q132.3 152.6 132.3 152.7L132.3 152.7Q132.3 153.2 131.9 153.5Q131.6 153.9 131.0 153.9L131.0 153.9Q130.2 153.9 129.8 153.2L129.8 153.2Q129.2 152.3 128.5 151.8Q127.7 151.4 126.6 151.4L126.6 151.4Q125.3 151.4 124.5 152.0Q123.7 152.5 123.7 153.4L123.7 153.4Q123.7 154.9 126.1 155.5L126.1 155.5L128.5 156.0Q130.9 156.6 131.9 157.5Q132.9 158.5 132.9 160.2L132.9 160.2Q132.9 162.3 131.2 163.6Q129.4 165.0 126.6 165.0ZM137.7 161.1L137.7 161.1Q138.4 161.1 138.8 161.5Q139.2 161.8 139.2 162.4L139.2 162.4Q139.2 162.8 139.1 163.3L139.1 163.3L137.8 168.3Q137.6 169.4 136.5 169.4L136.5 169.4Q135.9 169.4 135.6 169.1Q135.2 168.7 135.3 168.2L135.3 168.2Q135.3 168.1 135.3 167.8L135.3 167.8L136.2 162.4Q136.5 161.1 137.7 161.1Z M156.5 165.1L156.5 165.1Q154.1 165.1 152.3 164.0Q150.6 163.0 149.9 161.6L149.9 161.6Q149.6 161.0 149.6 160.5L149.6 160.5Q149.6 159.9 149.9 159.5Q150.3 159.1 151.0 159.1L151.0 159.1Q151.5 159.1 151.8 159.4Q152.2 159.6 152.6 160.2L152.6 160.2Q153.4 161.3 154.3 161.8Q155.2 162.3 156.6 162.3L156.6 162.3Q159.1 162.3 160.4 160.2Q161.7 158.1 161.8 154.2L161.8 154.2L161.8 154.0L161.7 154.0Q161.1 155.5 159.5 156.5Q157.9 157.4 155.9 157.4L155.9 157.4Q152.9 157.4 150.9 155.4Q148.9 153.5 148.9 150.4L148.9 150.4Q148.9 147.3 151.1 145.2Q153.3 143.1 156.6 143.1L156.6 143.1Q159.1 143.1 160.9 144.3Q162.8 145.5 163.8 147.8L163.8 147.8Q165.0 150.3 165.0 153.8L165.0 153.8Q165.0 159.1 162.7 162.1Q160.5 165.1 156.5 165.1ZM156.6 154.7L156.6 154.7Q158.6 154.7 159.9 153.5Q161.2 152.3 161.2 150.4L161.2 150.4Q161.2 148.5 159.9 147.2Q158.6 145.9 156.7 145.9L156.7 145.9Q154.8 145.9 153.5 147.2Q152.2 148.5 152.2 150.3L152.2 150.3Q152.2 152.2 153.4 153.5Q154.7 154.7 156.6 154.7Z M179.7 164.9L179.7 164.9Q176.7 164.9 175.0 162.8Q173.2 160.6 173.2 157.0Q173.2 153.3 175.0 151.2Q176.7 149.0 179.6 149.0L179.6 149.0Q181.3 149.0 182.5 149.8Q183.8 150.5 184.5 151.8L184.5 151.8L184.5 151.8L184.5 144.9Q184.5 144.1 185.0 143.7Q185.4 143.2 186.1 143.2L186.1 143.2Q186.8 143.2 187.3 143.7Q187.7 144.2 187.7 144.9L187.7 144.9L187.7 163.4Q187.7 164.1 187.3 164.5Q186.9 164.9 186.1 164.9L186.1 164.9Q185.5 164.9 185.0 164.5Q184.5 164.1 184.5 163.4L184.5 163.4L184.5 161.9L184.5 161.9Q183.9 163.3 182.6 164.1Q181.4 164.9 179.7 164.9ZM180.5 162.2L180.5 162.2Q182.3 162.2 183.5 160.8Q184.6 159.4 184.6 157.0L184.6 157.0Q184.6 154.6 183.5 153.1Q182.3 151.7 180.5 151.7L180.5 151.7Q178.6 151.7 177.5 153.1Q176.4 154.5 176.4 157.0L176.4 157.0Q176.4 159.4 177.5 160.8Q178.6 162.2 180.5 162.2ZM197.6 165.0L197.6 165.0Q194.1 165.0 192.2 162.9Q190.3 160.8 190.3 157.0L190.3 157.0Q190.3 153.4 192.2 151.2Q194.1 149.0 197.4 149.0L197.4 149.0Q200.5 149.0 202.4 151.0Q204.3 153.0 204.3 156.1L204.3 156.1Q204.3 156.9 203.9 157.3Q203.5 157.8 202.8 157.8L202.8 157.8L193.5 157.8L193.5 157.8Q193.5 159.9 194.6 161.2Q195.7 162.4 197.6 162.4L197.6 162.4Q198.8 162.4 199.8 161.9Q200.7 161.4 201.5 160.2L201.5 160.2Q202.0 159.6 202.7 159.6L202.7 159.6Q203.2 159.6 203.6 160.0Q204.0 160.3 204.0 160.9L204.0 160.9Q204.0 161.3 203.8 161.8L203.8 161.8Q203.0 163.3 201.4 164.1Q199.8 165.0 197.6 165.0ZM193.5 155.5L193.5 155.5L201.2 155.5Q201.1 153.7 200.1 152.6Q199.1 151.5 197.4 151.5L197.4 151.5Q195.8 151.5 194.7 152.6Q193.6 153.7 193.5 155.5Z M215.6 164.5Q215.2 164.9 214.4 164.9Q213.7 164.9 213.3 164.5Q212.9 164.0 212.9 163.3L212.9 163.3L212.9 150.6Q212.9 149.9 213.3 149.4Q213.7 149.0 214.4 149.0Q215.0 149.0 215.5 149.4Q215.9 149.8 215.9 150.6L215.9 150.6L215.9 151.8L216.0 151.8Q216.5 150.5 217.6 149.8Q218.8 149.0 220.3 149.0L220.3 149.0Q221.9 149.0 223.1 149.8Q224.2 150.6 224.6 152.0L224.6 152.0L224.7 152.0Q225.3 150.6 226.6 149.8Q227.9 149.0 229.5 149.0L229.5 149.0Q231.8 149.0 233.2 150.4Q234.6 151.8 234.6 154.1L234.6 154.1L234.6 163.3Q234.6 164.0 234.1 164.5Q233.7 164.9 233.0 164.9Q232.2 164.9 231.8 164.5Q231.4 164.0 231.4 163.3L231.4 163.3L231.4 154.8Q231.4 153.3 230.6 152.5Q229.8 151.7 228.4 151.7Q227.0 151.7 226.1 152.6Q225.3 153.6 225.3 155.0L225.3 155.0L225.3 163.3Q225.3 164.0 224.8 164.5Q224.4 164.9 223.7 164.9Q223.0 164.9 222.6 164.5Q222.2 164.0 222.2 163.3L222.2 163.3L222.2 154.6Q222.2 153.3 221.4 152.5Q220.6 151.7 219.2 151.7L219.2 151.7Q217.8 151.7 216.9 152.7Q216.0 153.6 216.0 155.1L216.0 155.1L216.0 163.3Q216.0 164.0 215.6 164.5ZM242.1 164.9L242.1 164.9Q239.8 164.9 238.4 163.6Q237.0 162.3 237.0 160.3L237.0 160.3Q237.0 158.3 238.5 157.1Q240.0 155.9 242.7 155.7L242.7 155.7L246.9 155.5L246.9 154.3Q246.9 153.0 246.1 152.3Q245.3 151.6 243.8 151.6L243.8 151.6Q242.7 151.6 241.9 152.0Q241.1 152.5 240.4 153.5L240.4 153.5Q240.0 154.2 239.1 154.2L239.1 154.2Q238.5 154.2 238.2 153.8Q237.8 153.4 237.8 152.9L237.8 152.9Q237.8 152.3 238.1 151.8L238.1 151.8Q238.7 150.5 240.3 149.8Q241.9 149.0 244.0 149.0L244.0 149.0Q246.8 149.0 248.4 150.4Q250.1 151.7 250.1 154.0L250.1 154.0L250.1 163.3Q250.1 164.1 249.7 164.5Q249.2 164.9 248.6 164.9L248.6 164.9Q247.9 164.9 247.5 164.5Q247.1 164.1 247.1 163.4L247.1 163.4L247.1 162.1L247.0 162.1Q246.3 163.4 245.0 164.2Q243.6 164.9 242.1 164.9ZM243.0 162.4L243.0 162.4Q244.7 162.4 245.8 161.4Q246.9 160.4 246.9 158.9L246.9 158.9L246.9 157.7L243.1 157.9Q241.7 158.0 240.9 158.6Q240.2 159.2 240.2 160.2L240.2 160.2Q240.2 161.2 240.9 161.8Q241.7 162.4 243.0 162.4ZM255.1 170.4L255.1 170.4Q254.0 170.4 253.4 170.0Q252.8 169.6 252.8 168.9L252.8 168.9Q252.8 168.4 253.1 168.1Q253.4 167.8 254.0 167.8L254.0 167.8Q254.2 167.8 254.4 167.8Q254.6 167.8 254.8 167.8L254.8 167.8Q256.4 167.8 257.2 165.7L257.2 165.7L257.5 164.8L252.3 151.3Q252.1 150.9 252.1 150.4L252.1 150.4Q252.1 149.8 252.6 149.4Q253.0 149.0 253.8 149.0L253.8 149.0Q254.4 149.0 254.7 149.3Q255.1 149.5 255.3 150.2L255.3 150.2L259.2 161.8L259.2 161.8L263.2 150.2Q263.4 149.5 263.7 149.3Q264.1 149.0 264.7 149.0L264.7 149.0Q265.4 149.0 265.8 149.4Q266.2 149.8 266.2 150.4L266.2 150.4Q266.2 150.8 266.1 151.3L266.1 151.3L260.7 165.4Q259.7 168.2 258.4 169.3Q257.2 170.4 255.1 170.4ZM280.3 162.8Q278.3 165.0 275.0 165.0Q271.6 165.0 269.6 162.8Q267.7 160.7 267.7 157.0L267.7 157.0Q267.7 153.3 269.6 151.1Q271.6 149.0 275.0 149.0Q278.3 149.0 280.3 151.1Q282.3 153.3 282.3 157.0L282.3 157.0Q282.3 160.7 280.3 162.8ZM275.0 162.3L275.0 162.3Q276.9 162.3 277.9 160.9Q279.0 159.5 279.0 157.0L279.0 157.0Q279.0 154.4 277.9 153.0Q276.8 151.6 275.0 151.6Q273.1 151.6 272.0 153.0Q270.9 154.4 270.9 157.0L270.9 157.0Q270.9 159.5 272.0 160.9Q273.1 162.3 275.0 162.3Z M296.6 164.9L296.6 164.9Q293.7 164.9 291.9 162.8Q290.1 160.6 290.1 157.0Q290.1 153.3 291.9 151.2Q293.6 149.0 296.6 149.0L296.6 149.0Q298.2 149.0 299.5 149.8Q300.7 150.5 301.4 151.8L301.4 151.8L301.4 151.8L301.4 144.9Q301.4 144.1 301.9 143.7Q302.3 143.2 303.0 143.2L303.0 143.2Q303.7 143.2 304.2 143.7Q304.6 144.2 304.6 144.9L304.6 144.9L304.6 163.4Q304.6 164.1 304.2 164.5Q303.8 164.9 303.1 164.9L303.1 164.9Q302.4 164.9 301.9 164.5Q301.4 164.1 301.4 163.4L301.4 163.4L301.4 161.9L301.4 161.9Q300.8 163.3 299.6 164.1Q298.3 164.9 296.6 164.9ZM297.4 162.2L297.4 162.2Q299.2 162.2 300.4 160.8Q301.5 159.4 301.5 157.0L301.5 157.0Q301.5 154.6 300.4 153.1Q299.2 151.7 297.4 151.7L297.4 151.7Q295.5 151.7 294.4 153.1Q293.3 154.5 293.3 157.0L293.3 157.0Q293.3 159.4 294.4 160.8Q295.5 162.2 297.4 162.2ZM314.5 165.0L314.5 165.0Q311.1 165.0 309.1 162.9Q307.2 160.8 307.2 157.0L307.2 157.0Q307.2 153.4 309.1 151.2Q311.1 149.0 314.3 149.0L314.3 149.0Q317.4 149.0 319.3 151.0Q321.3 153.0 321.3 156.1L321.3 156.1Q321.3 156.9 320.8 157.3Q320.4 157.8 319.7 157.8L319.7 157.8L310.4 157.8L310.4 157.8Q310.4 159.9 311.5 161.2Q312.6 162.4 314.5 162.4L314.5 162.4Q315.8 162.4 316.7 161.9Q317.6 161.4 318.5 160.2L318.5 160.2Q318.9 159.6 319.6 159.6L319.6 159.6Q320.2 159.6 320.5 160.0Q320.9 160.3 320.9 160.9L320.9 160.9Q320.9 161.3 320.7 161.8L320.7 161.8Q319.9 163.3 318.3 164.1Q316.7 165.0 314.5 165.0ZM310.4 155.5L310.4 155.5L318.1 155.5Q318.0 153.7 317.0 152.6Q316.0 151.5 314.3 151.5L314.3 151.5Q312.7 151.5 311.6 152.6Q310.5 153.7 310.4 155.5Z M343.0 164.7L331.3 164.7Q330.6 164.7 330.2 164.3Q329.8 163.9 329.8 163.3L329.8 163.3Q329.8 162.8 330.0 162.5Q330.2 162.1 330.7 161.6L330.7 161.6L337.3 154.9Q339.4 152.8 340.1 151.7Q340.7 150.6 340.7 149.3L340.7 149.3Q340.7 147.8 339.7 146.8Q338.7 145.8 337.1 145.8L337.1 145.8Q333.9 145.8 332.8 149.0L332.8 149.0Q332.6 149.5 332.2 149.8Q331.9 150.0 331.3 150.0L331.3 150.0Q330.7 150.0 330.3 149.6Q329.9 149.3 329.9 148.6L329.9 148.6Q329.9 148.3 330.0 148.0L330.0 148.0Q330.1 147.1 330.7 146.3Q331.2 145.4 332.1 144.7Q333.0 144.0 334.3 143.6Q335.6 143.1 337.1 143.1L337.1 143.1Q340.1 143.1 342.0 144.8Q344.0 146.5 344.0 149.1L344.0 149.1Q344.0 150.9 343.0 152.5Q342.0 154.0 339.3 156.8L339.3 156.8L334.2 161.8L334.2 161.9L343.0 161.9Q343.7 161.9 344.1 162.3Q344.5 162.7 344.5 163.3L344.5 163.3Q344.5 163.9 344.1 164.3Q343.7 164.7 343.0 164.7L343.0 164.7ZM360.9 162.1Q358.8 165.1 355.0 165.1Q351.2 165.1 349.0 162.1Q346.9 159.2 346.9 154.1L346.9 154.1Q346.9 149.0 349.0 146.1Q351.2 143.1 355.0 143.1L355.0 143.1Q358.7 143.1 360.9 146.1Q363.0 149.0 363.0 154.1L363.0 154.1Q363.0 159.1 360.9 162.1ZM355.0 162.3L355.0 162.3Q357.2 162.3 358.5 160.1Q359.7 157.9 359.7 154.1L359.7 154.1Q359.7 150.3 358.5 148.1Q357.2 145.9 355.0 145.9Q352.7 145.9 351.4 148.1Q350.2 150.3 350.2 154.1L350.2 154.1Q350.2 157.9 351.4 160.1Q352.7 162.3 355.0 162.3ZM379.1 164.7L367.4 164.7Q366.7 164.7 366.3 164.3Q365.9 163.9 365.9 163.3L365.9 163.3Q365.9 162.8 366.1 162.5Q366.3 162.1 366.8 161.6L366.8 161.6L373.4 154.9Q375.5 152.8 376.1 151.7Q376.8 150.6 376.8 149.3L376.8 149.3Q376.8 147.8 375.8 146.8Q374.7 145.8 373.1 145.8L373.1 145.8Q370.0 145.8 368.9 149.0L368.9 149.0Q368.7 149.5 368.3 149.8Q368.0 150.0 367.4 150.0L367.4 150.0Q366.7 150.0 366.4 149.6Q366.0 149.3 366.0 148.6L366.0 148.6Q366.0 148.3 366.1 148.0L366.1 148.0Q366.2 147.1 366.8 146.3Q367.3 145.4 368.2 144.7Q369.1 144.0 370.4 143.6Q371.7 143.1 373.2 143.1L373.2 143.1Q376.2 143.1 378.1 144.8Q380.1 146.5 380.1 149.1L380.1 149.1Q380.1 150.9 379.1 152.5Q378.1 154.0 375.4 156.8L375.4 156.8L370.3 161.8L370.3 161.9L379.1 161.9Q379.8 161.9 380.2 162.3Q380.6 162.7 380.6 163.3L380.6 163.3Q380.6 163.9 380.2 164.3Q379.8 164.7 379.1 164.7L379.1 164.7ZM390.9 165.1L390.9 165.1Q388.5 165.1 386.6 164.0Q384.7 162.9 384.0 161.2L384.0 161.2Q383.6 160.5 383.6 159.8L383.6 159.8Q383.6 159.1 384.0 158.7Q384.4 158.3 385.1 158.3L385.1 158.3Q385.6 158.3 386.0 158.6Q386.3 158.8 386.6 159.4L386.6 159.4Q387.1 160.8 388.2 161.5Q389.3 162.3 390.9 162.3L390.9 162.3Q392.9 162.3 394.2 161.0Q395.4 159.8 395.4 157.8L395.4 157.8Q395.4 155.8 394.2 154.6Q392.9 153.4 390.9 153.4L390.9 153.4Q388.8 153.4 387.5 154.7L387.5 154.7Q386.8 155.5 386.4 155.6Q386.1 155.8 385.5 155.8L385.5 155.8Q384.7 155.8 384.3 155.4Q383.9 154.9 383.9 154.2L383.9 154.2L383.9 153.9L384.6 145.8Q384.7 144.6 385.3 144.0Q385.9 143.5 387.1 143.5L387.1 143.5L396.1 143.5Q396.8 143.5 397.2 143.9Q397.6 144.3 397.6 144.9Q397.6 145.5 397.2 145.9Q396.8 146.3 396.1 146.3L396.1 146.3L387.5 146.3L386.9 152.9L386.9 152.9Q387.6 151.9 388.9 151.3Q390.1 150.8 391.7 150.8L391.7 150.8Q394.7 150.8 396.7 152.7Q398.6 154.6 398.6 157.7L398.6 157.7Q398.6 161.0 396.5 163.0Q394.3 165.1 390.9 165.1Z "/><mask id="satori_om-id-0-0-1"><rect x="40" y="217" width="1120" height="83" fill="#fff"/></mask><path fill="#224d67" d="M56.6 254.6L56.6 254.6Q54.8 254.6 53.5 253.4Q52.3 252.2 52.3 250.5L52.3 250.5Q52.3 248.7 53.5 247.5Q54.8 246.4 56.6 246.4L56.6 246.4Q58.4 246.4 59.6 247.5Q60.8 248.7 60.8 250.5L60.8 250.5Q60.8 252.2 59.6 253.4Q58.3 254.6 56.6 254.6ZM55.8 289.7L55.8 289.7Q49.8 289.7 46.1 286.6Q42.4 283.5 42.4 278.6L42.4 278.6Q42.4 275.3 43.9 272.9Q45.5 270.4 48.6 268.6L48.6 268.6Q51.4 267.0 52.4 265.7Q53.4 264.4 53.6 262.3L53.6 262.3Q54.1 259.2 56.8 259.2L56.8 259.2Q58.5 259.2 59.4 260.2Q60.3 261.2 60.3 262.9L60.3 262.9L60.3 263.4Q60.3 266.1 59.0 268.1Q57.7 270.0 54.9 271.7L54.9 271.7Q52.1 273.3 51.1 274.7Q50.0 276.2 50.0 278.3L50.0 278.3Q50.0 280.7 51.7 282.2Q53.4 283.7 56.1 283.7L56.1 283.7Q61.0 283.7 62.4 279.1L62.4 279.1Q63.3 276.6 65.8 276.6L65.8 276.6Q67.3 276.6 68.2 277.4Q69.0 278.3 69.0 279.8L69.0 279.8Q69.0 281.6 68.2 283.2L68.2 283.2Q66.8 286.2 63.5 288.0Q60.2 289.7 55.8 289.7ZM93.1 280.3L93.1 280.3Q83.9 280.3 78.6 274.4Q73.3 268.6 73.3 258.4L73.3 258.4Q73.3 248.3 78.6 242.5Q83.9 236.6 92.9 236.6L92.9 236.6Q98.8 236.6 103.2 239.2Q107.6 241.8 109.7 246.4L109.7 246.4Q110.4 247.9 110.4 249.3L110.4 249.3Q110.4 250.8 109.5 251.7Q108.6 252.6 107.1 252.6L107.1 252.6Q104.6 252.6 103.4 249.9L103.4 249.9Q101.9 246.6 99.2 244.8Q96.5 243.0 93.0 243.0L93.0 243.0Q87.5 243.0 84.3 247.2Q81.1 251.4 81.1 258.4L81.1 258.4Q81.1 265.5 84.3 269.7Q87.5 273.9 93.0 273.9L93.0 273.9Q100.7 273.9 103.5 267.3L103.5 267.3Q104.1 266.0 104.9 265.4Q105.7 264.9 106.9 264.9L106.9 264.9Q108.4 264.9 109.4 265.8Q110.4 266.7 110.4 268.2L110.4 268.2Q110.4 269.6 109.7 271.1L109.7 271.1Q107.6 275.4 103.3 277.8Q99.0 280.3 93.1 280.3ZM140.9 275.9Q136.8 280.2 129.9 280.2Q123.1 280.2 119.0 275.9Q114.9 271.6 114.9 264.1L114.9 264.1Q114.9 256.6 119.0 252.2Q123.1 247.9 129.9 247.9L129.9 247.9Q136.8 247.9 140.9 252.2Q145.0 256.6 145.0 264.1L145.0 264.1Q145.0 271.6 140.9 275.9ZM124.4 271.7Q126.4 274.4 129.9 274.4Q133.5 274.4 135.5 271.7Q137.6 269.0 137.6 264.1L137.6 264.1Q137.6 259.2 135.5 256.4Q133.5 253.7 129.9 253.7L129.9 253.7Q126.5 253.7 124.4 256.4Q122.3 259.2 122.3 264.1L122.3 264.1Q122.3 269.0 124.4 271.7ZM155.9 279.2Q154.9 280.2 153.3 280.2Q151.7 280.2 150.7 279.2Q149.7 278.1 149.7 276.3L149.7 276.3L149.7 251.6Q149.7 249.9 150.6 248.9Q151.5 247.9 153.1 247.9Q154.8 247.9 155.8 248.9Q156.7 249.9 156.7 251.6L156.7 251.6L156.7 253.8L156.9 253.8Q159.5 247.9 166.6 247.9L166.6 247.9Q171.7 247.9 174.5 251.0Q177.3 254.1 177.3 259.5L177.3 259.5L177.3 276.3Q177.3 278.1 176.3 279.2Q175.3 280.2 173.7 280.2Q172.0 280.2 171.0 279.2Q170.0 278.1 170.0 276.3L170.0 276.3L170.0 261.0Q170.0 257.6 168.5 255.9Q166.9 254.1 163.8 254.1L163.8 254.1Q160.7 254.1 158.8 256.2Q157.0 258.2 157.0 261.6L157.0 261.6L157.0 276.3Q157.0 278.1 155.9 279.2ZM194.7 280.1L194.7 280.1Q188.9 280.1 185.4 275.7Q181.9 271.4 181.9 264.0L181.9 264.0Q181.9 256.7 185.4 252.3Q188.9 248.0 194.7 248.0L194.7 248.0Q198.0 248.0 200.6 249.5Q203.1 251.1 204.4 253.7L204.4 253.7L204.5 253.7L204.5 240.6Q204.5 238.7 205.5 237.7Q206.5 236.7 208.2 236.7Q209.8 236.7 210.8 237.7Q211.8 238.7 211.8 240.6L211.8 240.6L211.8 276.5Q211.8 278.2 210.8 279.2Q209.8 280.2 208.2 280.2L208.2 280.2Q206.6 280.2 205.6 279.2Q204.5 278.2 204.5 276.5L204.5 276.5L204.5 274.1L204.4 274.1Q203.2 276.9 200.7 278.5Q198.3 280.1 194.7 280.1ZM196.9 274.1L196.9 274.1Q200.4 274.1 202.5 271.4Q204.6 268.7 204.6 264.1L204.6 264.1Q204.6 259.5 202.5 256.7Q200.4 254.0 196.9 254.0L196.9 254.0Q193.4 254.0 191.4 256.7Q189.3 259.4 189.3 264.1L189.3 264.1Q189.3 268.7 191.4 271.4Q193.4 274.1 196.9 274.1ZM231.7 280.2L231.7 280.2Q224.6 280.2 220.6 276.0Q216.7 271.7 216.7 264.2L216.7 264.2Q216.7 256.7 220.6 252.3Q224.6 247.9 231.3 247.9L231.3 247.9Q237.7 247.9 241.7 251.9Q245.6 256.0 245.6 262.4L245.6 262.4Q245.6 264.0 244.7 264.9Q243.8 265.8 242.2 265.8L242.2 265.8L223.9 265.8L223.9 266.0Q223.9 269.9 226.0 272.3Q228.1 274.6 231.7 274.6L231.7 274.6Q234.2 274.6 235.9 273.6Q237.7 272.7 239.5 270.4L239.5 270.4Q240.5 269.3 241.9 269.3L241.9 269.3Q243.2 269.3 244.0 270.0Q244.8 270.8 244.8 272.1L244.8 272.1Q244.8 272.9 244.3 273.9L244.3 273.9Q242.8 276.9 239.5 278.5Q236.2 280.2 231.7 280.2ZM224.0 261.0L224.0 261.0L238.5 261.0Q238.4 257.6 236.4 255.6Q234.4 253.5 231.4 253.5Q228.3 253.5 226.2 255.6Q224.2 257.7 224.0 261.0ZM256.6 279.2Q255.6 280.2 254.0 280.2Q252.3 280.2 251.3 279.2Q250.3 278.1 250.3 276.3L250.3 276.3L250.3 251.6Q250.3 249.9 251.3 248.9Q252.2 247.9 253.8 247.9Q255.4 247.9 256.4 248.9Q257.4 249.9 257.4 251.6L257.4 251.6L257.4 253.8L257.6 253.8Q260.2 247.9 267.2 247.9L267.2 247.9Q272.3 247.9 275.2 251.0Q278.0 254.1 278.0 259.5L278.0 259.5L278.0 276.3Q278.0 278.1 277.0 279.2Q276.0 280.2 274.3 280.2Q272.7 280.2 271.7 279.2Q270.7 278.1 270.7 276.3L270.7 276.3L270.7 261.0Q270.7 257.6 269.1 255.9Q267.5 254.1 264.5 254.1L264.5 254.1Q261.3 254.1 259.5 256.2Q257.6 258.2 257.6 261.6L257.6 261.6L257.6 276.3Q257.6 278.1 256.6 279.2ZM292.9 280.1L292.9 280.1Q288.4 280.1 285.5 277.5Q282.5 274.9 282.5 270.7L282.5 270.7Q282.5 266.6 285.6 264.2Q288.7 261.8 294.4 261.4L294.4 261.4L302.6 260.9L302.6 258.7Q302.6 256.3 301.0 254.9Q299.5 253.6 296.8 253.6L296.8 253.6Q294.6 253.6 293.1 254.4Q291.6 255.2 290.3 257.2L290.3 257.2Q289.2 258.7 287.3 258.7L287.3 258.7Q286.0 258.7 285.1 257.9Q284.2 257.1 284.2 255.8L284.2 255.8Q284.2 254.8 284.7 253.8L284.7 253.8Q285.9 251.1 289.3 249.5Q292.6 247.9 297.1 247.9L297.1 247.9Q302.9 247.9 306.3 250.7Q309.8 253.5 309.8 258.2L309.8 258.2L309.8 276.5Q309.8 278.2 308.8 279.2Q307.8 280.2 306.3 280.2L306.3 280.2Q304.7 280.2 303.8 279.3Q302.9 278.4 302.8 276.8L302.8 276.8L302.8 274.6L302.6 274.6Q301.3 277.1 298.6 278.6Q296.0 280.1 292.9 280.1ZM295.1 274.6L295.1 274.6Q298.3 274.6 300.4 272.7Q302.6 270.8 302.6 268.1L302.6 268.1L302.6 265.7L295.4 266.1Q292.7 266.3 291.3 267.4Q289.8 268.6 289.8 270.4L289.8 270.4Q289.8 272.3 291.3 273.4Q292.7 274.6 295.1 274.6ZM327.3 280.1L327.3 280.1Q321.4 280.1 317.9 275.7Q314.4 271.4 314.4 264.0L314.4 264.0Q314.4 256.7 317.9 252.3Q321.4 248.0 327.3 248.0L327.3 248.0Q330.5 248.0 333.1 249.5Q335.6 251.1 336.9 253.7L336.9 253.7L337.0 253.7L337.0 240.6Q337.0 238.7 338.0 237.7Q339.0 236.7 340.7 236.7Q342.3 236.7 343.3 237.7Q344.3 238.7 344.3 240.6L344.3 240.6L344.3 276.5Q344.3 278.2 343.3 279.2Q342.3 280.2 340.7 280.2L340.7 280.2Q339.1 280.2 338.1 279.2Q337.0 278.2 337.0 276.5L337.0 276.5L337.0 274.1L336.9 274.1Q335.7 276.9 333.2 278.5Q330.8 280.1 327.3 280.1ZM329.5 274.1L329.5 274.1Q332.9 274.1 335.0 271.4Q337.1 268.7 337.1 264.1L337.1 264.1Q337.1 259.5 335.0 256.7Q332.9 254.0 329.5 254.0L329.5 254.0Q325.9 254.0 323.9 256.7Q321.8 259.4 321.8 264.1L321.8 264.1Q321.8 268.7 323.9 271.4Q325.9 274.1 329.5 274.1ZM375.2 275.9Q371.1 280.2 364.2 280.2Q357.3 280.2 353.2 275.9Q349.2 271.6 349.2 264.1L349.2 264.1Q349.2 256.6 353.3 252.2Q357.4 247.9 364.2 247.9L364.2 247.9Q371.1 247.9 375.1 252.2Q379.2 256.6 379.2 264.1L379.2 264.1Q379.2 271.6 375.2 275.9ZM358.6 271.7Q360.7 274.4 364.2 274.4Q367.7 274.4 369.8 271.7Q371.8 269.0 371.8 264.1L371.8 264.1Q371.8 259.2 369.8 256.4Q367.7 253.7 364.2 253.7L364.2 253.7Q360.7 253.7 358.6 256.4Q356.6 259.2 356.6 264.1L356.6 264.1Q356.6 269.0 358.6 271.7ZM395.9 280.2L395.9 280.2Q391.1 280.2 387.7 278.5Q384.4 276.8 383.2 274.0L383.2 274.0Q382.9 273.2 382.9 272.5L382.9 272.5Q382.9 271.2 383.8 270.4Q384.6 269.6 386.0 269.6L386.0 269.6Q387.8 269.6 389.2 271.4L389.2 271.4Q390.4 273.3 392.0 274.1Q393.6 274.9 396.2 274.9L396.2 274.9Q398.7 274.9 400.3 273.9Q401.8 272.8 401.8 271.1L401.8 271.1Q401.8 269.7 400.8 268.8Q399.8 268.0 397.5 267.4L397.5 267.4L392.4 266.3Q383.4 264.3 383.4 257.4L383.4 257.4Q383.4 253.1 386.8 250.5Q390.3 247.9 396.0 247.9L396.0 247.9Q400.4 247.9 403.6 249.8Q406.9 251.6 407.6 254.4L407.6 254.4Q407.7 255.0 407.7 255.5L407.7 255.5Q407.7 256.6 407.0 257.4Q406.3 258.1 404.9 258.1L404.9 258.1Q403.1 258.1 402.1 256.7L402.1 256.7Q401.0 255.0 399.5 254.1Q398.0 253.2 395.8 253.2L395.8 253.2Q393.4 253.2 391.9 254.3Q390.4 255.3 390.4 257.0L390.4 257.0Q390.4 259.8 395.0 260.8L395.0 260.8L400.0 261.9Q404.9 263.0 407.0 264.9Q409.1 266.9 409.1 270.3L409.1 270.3Q409.1 274.8 405.5 277.5Q401.8 280.2 395.9 280.2Z M434.9 280.1L434.9 280.1Q430.3 280.1 427.4 277.5Q424.5 274.9 424.5 270.7L424.5 270.7Q424.5 266.6 427.6 264.2Q430.6 261.8 436.3 261.4L436.3 261.4L444.5 260.9L444.5 258.7Q444.5 256.3 443.0 254.9Q441.5 253.6 438.7 253.6L438.7 253.6Q436.6 253.6 435.1 254.4Q433.6 255.2 432.2 257.2L432.2 257.2Q431.1 258.7 429.3 258.7L429.3 258.7Q427.9 258.7 427.1 257.9Q426.2 257.1 426.2 255.8L426.2 255.8Q426.2 254.8 426.7 253.8L426.7 253.8Q427.9 251.1 431.2 249.5Q434.6 247.9 439.0 247.9L439.0 247.9Q444.8 247.9 448.3 250.7Q451.7 253.5 451.7 258.2L451.7 258.2L451.7 276.5Q451.7 278.2 450.8 279.2Q449.8 280.2 448.2 280.2L448.2 280.2Q446.7 280.2 445.7 279.3Q444.8 278.4 444.7 276.8L444.7 276.8L444.7 274.6L444.6 274.6Q443.2 277.1 440.6 278.6Q437.9 280.1 434.9 280.1ZM437.1 274.6L437.1 274.6Q440.2 274.6 442.4 272.7Q444.5 270.8 444.5 268.1L444.5 268.1L444.5 265.7L437.3 266.1Q434.7 266.3 433.2 267.4Q431.8 268.6 431.8 270.4L431.8 270.4Q431.8 272.3 433.2 273.4Q434.7 274.6 437.1 274.6Z M475.9 279.1Q474.9 280.2 473.2 280.2Q471.6 280.2 470.6 279.1Q469.6 278.1 469.6 276.3L469.6 276.3L469.6 251.6Q469.6 249.9 470.6 248.9Q471.5 247.9 473.1 247.9L473.1 247.9Q474.6 247.9 475.6 248.9Q476.6 249.9 476.6 251.6L476.6 251.6L476.6 254.0L476.7 254.0Q477.3 251.3 479.2 249.6Q481.0 248.0 483.3 248.0L483.3 248.0Q485.0 248.0 485.9 248.8L485.9 248.8Q487.0 249.6 487.0 251.4L487.0 251.4Q487.0 253.1 485.9 254.0L485.9 254.0Q484.8 254.9 482.6 255.0L482.6 255.0Q476.9 255.0 476.9 261.4L476.9 261.4L476.9 276.3Q476.9 278.1 475.9 279.1ZM504.0 280.2L504.0 280.2Q496.9 280.2 492.9 276.0Q488.9 271.7 488.9 264.2L488.9 264.2Q488.9 256.7 492.9 252.3Q496.9 247.9 503.6 247.9L503.6 247.9Q510.0 247.9 514.0 251.9Q517.9 256.0 517.9 262.4L517.9 262.4Q517.9 264.0 517.0 264.9Q516.1 265.8 514.5 265.8L514.5 265.8L496.2 265.8L496.2 266.0Q496.2 269.9 498.3 272.3Q500.4 274.6 504.0 274.6L504.0 274.6Q506.4 274.6 508.2 273.6Q510.0 272.7 511.7 270.4L511.7 270.4Q512.8 269.3 514.2 269.3L514.2 269.3Q515.5 269.3 516.3 270.0Q517.1 270.8 517.1 272.1L517.1 272.1Q517.1 272.9 516.6 273.9L516.6 273.9Q515.1 276.9 511.8 278.5Q508.5 280.2 504.0 280.2ZM496.3 261.0L496.3 261.0L510.8 261.0Q510.7 257.6 508.7 255.6Q506.7 253.5 503.7 253.5Q500.6 253.5 498.5 255.6Q496.5 257.7 496.3 261.0ZM528.9 289.6Q527.9 290.6 526.2 290.6Q524.6 290.6 523.6 289.6Q522.6 288.6 522.6 286.8L522.6 286.8L522.6 251.7Q522.6 249.9 523.6 248.9Q524.6 247.9 526.2 247.9L526.2 247.9Q527.8 247.9 528.7 248.9Q529.7 249.9 529.7 251.7L529.7 251.7L529.7 253.9L529.9 253.9Q531.2 251.1 533.8 249.6Q536.3 248.0 539.7 248.0L539.7 248.0Q545.6 248.0 549.1 252.3Q552.5 256.6 552.5 264.1L552.5 264.1Q552.5 271.5 549.1 275.8Q545.6 280.1 539.8 280.1L539.8 280.1Q536.4 280.1 533.9 278.6Q531.3 277.1 530.0 274.4L530.0 274.4L529.9 274.4L529.9 286.8Q529.9 288.6 528.9 289.6ZM537.4 274.1L537.4 274.1Q541.0 274.1 543.0 271.4Q545.1 268.7 545.1 264.1L545.1 264.1Q545.1 259.5 543.0 256.7Q540.9 254.0 537.4 254.0L537.4 254.0Q534.0 254.0 532.0 256.8Q529.9 259.5 529.8 264.1L529.8 264.1Q529.9 268.6 532.0 271.4Q534.0 274.1 537.4 274.1ZM571.0 280.2L571.0 280.2Q563.9 280.2 559.9 276.0Q555.9 271.7 555.9 264.2L555.9 264.2Q555.9 256.7 559.9 252.3Q563.9 247.9 570.6 247.9L570.6 247.9Q577.0 247.9 581.0 251.9Q584.9 256.0 584.9 262.4L584.9 262.4Q584.9 264.0 584.0 264.9Q583.1 265.8 581.5 265.8L581.5 265.8L563.2 265.8L563.2 266.0Q563.2 269.9 565.3 272.3Q567.4 274.6 571.0 274.6L571.0 274.6Q573.4 274.6 575.2 273.6Q577.0 272.7 578.7 270.4L578.7 270.4Q579.8 269.3 581.2 269.3L581.2 269.3Q582.5 269.3 583.3 270.0Q584.1 270.8 584.1 272.1L584.1 272.1Q584.1 272.9 583.6 273.9L583.6 273.9Q582.1 276.9 578.8 278.5Q575.5 280.2 571.0 280.2ZM563.3 261.0L563.3 261.0L577.8 261.0Q577.7 257.6 575.7 255.6Q573.7 253.5 570.7 253.5Q567.6 253.5 565.5 255.6Q563.5 257.7 563.3 261.0ZM591.6 271.9L591.6 271.9L591.6 254.1L589.7 254.1Q588.3 254.1 587.5 253.4Q586.7 252.6 586.7 251.3L586.7 251.3Q586.7 250.0 587.5 249.3Q588.3 248.5 589.7 248.5L589.7 248.5L591.6 248.5L591.6 244.4Q591.6 242.6 592.6 241.6Q593.6 240.6 595.3 240.6L595.3 240.6Q597.0 240.6 597.9 241.6Q598.9 242.6 598.9 244.4L598.9 244.4L598.9 248.5L602.3 248.5Q603.7 248.5 604.4 249.3Q605.2 250.0 605.2 251.3L605.2 251.3Q605.2 252.6 604.4 253.4Q603.6 254.1 602.3 254.1L602.3 254.1L598.9 254.1L598.9 270.3Q598.9 272.1 599.6 272.9Q600.3 273.7 601.9 273.9L601.9 273.9L602.4 273.9Q605.3 274.2 605.3 276.6L605.3 276.6Q605.3 278.2 604.0 279.1Q602.6 279.9 600.1 279.9L600.1 279.9L599.8 279.9Q591.6 279.9 591.6 271.9ZM616.4 243.0Q615.2 244.2 613.5 244.2Q611.8 244.2 610.7 243.0Q609.5 241.8 609.5 240.2L609.5 240.2Q609.5 238.5 610.7 237.4Q611.8 236.2 613.5 236.2L613.5 236.2Q615.3 236.2 616.4 237.4Q617.6 238.5 617.6 240.2L617.6 240.2Q617.6 241.8 616.4 243.0ZM616.2 279.1Q615.2 280.2 613.5 280.2Q611.9 280.2 610.9 279.1Q609.9 278.1 609.9 276.3L609.9 276.3L609.9 251.7Q609.9 250.0 610.9 248.9Q611.9 247.9 613.5 247.9Q615.2 247.9 616.2 248.9Q617.2 250.0 617.2 251.8L617.2 251.8L617.2 276.3Q617.2 278.1 616.2 279.1ZM629.6 279.1Q628.6 280.2 627.0 280.2Q625.3 280.2 624.3 279.1Q623.3 278.1 623.3 276.3L623.3 276.3L623.3 251.6Q623.3 249.9 624.3 248.9Q625.2 247.9 626.8 247.9L626.8 247.9Q628.3 247.9 629.3 248.9Q630.3 249.9 630.3 251.6L630.3 251.6L630.3 254.0L630.4 254.0Q631.1 251.3 632.9 249.6Q634.7 248.0 637.1 248.0L637.1 248.0Q638.8 248.0 639.6 248.8L639.6 248.8Q640.7 249.6 640.7 251.4L640.7 251.4Q640.7 253.1 639.6 254.0L639.6 254.0Q638.5 254.9 636.4 255.0L636.4 255.0Q630.6 255.0 630.6 261.4L630.6 261.4L630.6 276.3Q630.6 278.1 629.6 279.1Z M662.5 279.2Q661.5 280.2 659.8 280.2Q658.2 280.2 657.2 279.2Q656.2 278.1 656.2 276.3L656.2 276.3L656.2 240.6Q656.2 238.7 657.2 237.7Q658.2 236.7 659.8 236.7Q661.5 236.7 662.5 237.7Q663.5 238.7 663.5 240.6L663.5 240.6L663.5 276.3Q663.5 278.1 662.5 279.2ZM678.8 280.1L678.8 280.1Q674.2 280.1 671.3 277.5Q668.4 274.9 668.4 270.7L668.4 270.7Q668.4 266.6 671.5 264.2Q674.5 261.8 680.2 261.4L680.2 261.4L688.5 260.9L688.5 258.7Q688.5 256.3 686.9 254.9Q685.4 253.6 682.7 253.6L682.7 253.6Q680.5 253.6 679.0 254.4Q677.5 255.2 676.2 257.2L676.2 257.2Q675.0 258.7 673.2 258.7L673.2 258.7Q671.8 258.7 671.0 257.9Q670.1 257.1 670.1 255.8L670.1 255.8Q670.1 254.8 670.6 253.8L670.6 253.8Q671.8 251.1 675.1 249.5Q678.5 247.9 682.9 247.9L682.9 247.9Q688.7 247.9 692.2 250.7Q695.7 253.5 695.7 258.2L695.7 258.2L695.7 276.5Q695.7 278.2 694.7 279.2Q693.7 280.2 692.1 280.2L692.1 280.2Q690.6 280.2 689.7 279.3Q688.7 278.4 688.6 276.8L688.6 276.8L688.6 274.6L688.5 274.6Q687.2 277.1 684.5 278.6Q681.8 280.1 678.8 280.1ZM681.0 274.6L681.0 274.6Q684.1 274.6 686.3 272.7Q688.5 270.8 688.5 268.1L688.5 268.1L688.5 265.7L681.3 266.1Q678.6 266.3 677.2 267.4Q675.7 268.6 675.7 270.4L675.7 270.4Q675.7 272.3 677.2 273.4Q678.6 274.6 681.0 274.6Z M720.0 279.2Q719.0 280.2 717.4 280.2Q715.8 280.2 714.8 279.2Q713.7 278.1 713.7 276.3L713.7 276.3L713.7 240.5Q713.7 238.7 714.7 237.7Q715.7 236.7 717.3 236.7L717.3 236.7Q719.0 236.7 720.0 237.7Q720.9 238.7 720.9 240.5L720.9 240.5L720.9 253.9L721.1 253.9Q722.4 251.0 724.9 249.5Q727.4 247.9 730.9 247.9L730.9 247.9Q736.0 247.9 738.9 251.1Q741.8 254.2 741.8 259.6L741.8 259.6L741.8 276.3Q741.8 278.1 740.8 279.2Q739.8 280.2 738.1 280.2Q736.5 280.2 735.5 279.2Q734.5 278.1 734.5 276.3L734.5 276.3L734.5 261.1Q734.5 257.8 732.9 255.9Q731.2 254.1 728.1 254.1L728.1 254.1Q724.8 254.1 722.9 256.2Q721.0 258.3 721.0 261.7L721.0 261.7L721.0 276.3Q721.0 278.1 720.0 279.2ZM754.3 243.0Q753.1 244.2 751.4 244.2Q749.7 244.2 748.5 243.0Q747.4 241.8 747.4 240.2L747.4 240.2Q747.4 238.5 748.5 237.4Q749.7 236.2 751.4 236.2L751.4 236.2Q753.1 236.2 754.3 237.4Q755.5 238.5 755.5 240.2L755.5 240.2Q755.5 241.8 754.3 243.0ZM754.1 279.1Q753.1 280.2 751.4 280.2Q749.7 280.2 748.8 279.1Q747.8 278.1 747.8 276.3L747.8 276.3L747.8 251.7Q747.8 250.0 748.8 248.9Q749.7 247.9 751.4 247.9Q753.1 247.9 754.1 248.9Q755.1 250.0 755.1 251.8L755.1 251.8L755.1 276.3Q755.1 278.1 754.1 279.1ZM773.2 280.2L773.2 280.2Q768.3 280.2 765.0 278.5Q761.7 276.8 760.5 274.0L760.5 274.0Q760.2 273.2 760.2 272.5L760.2 272.5Q760.2 271.2 761.1 270.4Q761.9 269.6 763.3 269.6L763.3 269.6Q765.1 269.6 766.4 271.4L766.4 271.4Q767.7 273.3 769.3 274.1Q770.9 274.9 773.4 274.9L773.4 274.9Q776.0 274.9 777.6 273.9Q779.1 272.8 779.1 271.1L779.1 271.1Q779.1 269.7 778.1 268.8Q777.1 268.0 774.7 267.4L774.7 267.4L769.7 266.3Q760.6 264.3 760.6 257.4L760.6 257.4Q760.6 253.1 764.1 250.5Q767.6 247.9 773.3 247.9L773.3 247.9Q777.7 247.9 780.9 249.8Q784.1 251.6 784.9 254.4L784.9 254.4Q785.0 255.0 785.0 255.5L785.0 255.5Q785.0 256.6 784.3 257.4Q783.6 258.1 782.2 258.1L782.2 258.1Q780.4 258.1 779.4 256.7L779.4 256.7Q778.3 255.0 776.8 254.1Q775.3 253.2 773.1 253.2L773.1 253.2Q770.7 253.2 769.2 254.3Q767.7 255.3 767.7 257.0L767.7 257.0Q767.7 259.8 772.3 260.8L772.3 260.8L777.3 261.9Q782.2 263.0 784.3 264.9Q786.4 266.9 786.4 270.3L786.4 270.3Q786.4 274.8 782.8 277.5Q779.1 280.2 773.2 280.2ZM793.0 271.9L793.0 271.9L793.0 254.1L791.1 254.1Q789.7 254.1 788.9 253.4Q788.2 252.6 788.2 251.3L788.2 251.3Q788.2 250.0 788.9 249.3Q789.7 248.5 791.1 248.5L791.1 248.5L793.0 248.5L793.0 244.4Q793.0 242.6 794.0 241.6Q795.0 240.6 796.7 240.6L796.7 240.6Q798.4 240.6 799.4 241.6Q800.3 242.6 800.3 244.4L800.3 244.4L800.3 248.5L803.7 248.5Q805.1 248.5 805.9 249.3Q806.6 250.0 806.6 251.3L806.6 251.3Q806.6 252.6 805.8 253.4Q805.1 254.1 803.7 254.1L803.7 254.1L800.3 254.1L800.3 270.3Q800.3 272.1 801.0 272.9Q801.7 273.7 803.3 273.9L803.3 273.9L803.8 273.9Q806.7 274.2 806.7 276.6L806.7 276.6Q806.7 278.2 805.4 279.1Q804.0 279.9 801.5 279.9L801.5 279.9L801.2 279.9Q793.0 279.9 793.0 271.9ZM835.8 275.9Q831.8 280.2 824.9 280.2Q818.0 280.2 813.9 275.9Q809.9 271.6 809.9 264.1L809.9 264.1Q809.9 256.6 814.0 252.2Q818.1 247.9 824.9 247.9L824.9 247.9Q831.7 247.9 835.8 252.2Q839.9 256.6 839.9 264.1L839.9 264.1Q839.9 271.6 835.8 275.9ZM819.3 271.7Q821.4 274.4 824.9 274.4Q828.4 274.4 830.5 271.7Q832.5 269.0 832.5 264.1L832.5 264.1Q832.5 259.2 830.5 256.4Q828.4 253.7 824.9 253.7L824.9 253.7Q821.4 253.7 819.3 256.4Q817.3 259.2 817.3 264.1L817.3 264.1Q817.3 269.0 819.3 271.7ZM850.9 279.1Q849.9 280.2 848.2 280.2Q846.6 280.2 845.6 279.1Q844.6 278.1 844.6 276.3L844.6 276.3L844.6 251.6Q844.6 249.9 845.6 248.9Q846.5 247.9 848.1 247.9L848.1 247.9Q849.6 247.9 850.6 248.9Q851.6 249.9 851.6 251.6L851.6 251.6L851.6 254.0L851.7 254.0Q852.3 251.3 854.2 249.6Q856.0 248.0 858.3 248.0L858.3 248.0Q860.0 248.0 860.9 248.8L860.9 248.8Q862.0 249.6 862.0 251.4L862.0 251.4Q862.0 253.1 860.9 254.0L860.9 254.0Q859.8 254.9 857.6 255.0L857.6 255.0Q851.9 255.0 851.9 261.4L851.9 261.4L851.9 276.3Q851.9 278.1 850.9 279.1ZM871.9 243.0Q870.7 244.2 869.0 244.2Q867.3 244.2 866.2 243.0Q865 241.8 865 240.2L865 240.2Q865 238.5 866.2 237.4Q867.3 236.2 869.0 236.2L869.0 236.2Q870.8 236.2 871.9 237.4Q873.1 238.5 873.1 240.2L873.1 240.2Q873.1 241.8 871.9 243.0ZM871.7 279.1Q870.7 280.2 869.0 280.2Q867.4 280.2 866.4 279.1Q865.4 278.1 865.4 276.3L865.4 276.3L865.4 251.7Q865.4 250.0 866.4 248.9Q867.4 247.9 869.0 247.9Q870.7 247.9 871.7 248.9Q872.7 250.0 872.7 251.8L872.7 251.8L872.7 276.3Q872.7 278.1 871.7 279.1ZM887.9 280.1L887.9 280.1Q883.4 280.1 880.5 277.5Q877.6 274.9 877.6 270.7L877.6 270.7Q877.6 266.6 880.6 264.2Q883.7 261.8 889.4 261.4L889.4 261.4L897.6 260.9L897.6 258.7Q897.6 256.3 896.1 254.9Q894.5 253.6 891.8 253.6L891.8 253.6Q889.6 253.6 888.1 254.4Q886.7 255.2 885.3 257.2L885.3 257.2Q884.2 258.7 882.3 258.7L882.3 258.7Q881.0 258.7 880.1 257.9Q879.3 257.1 879.3 255.8L879.3 255.8Q879.3 254.8 879.8 253.8L879.8 253.8Q880.9 251.1 884.3 249.5Q887.6 247.9 892.1 247.9L892.1 247.9Q897.9 247.9 901.3 250.7Q904.8 253.5 904.8 258.2L904.8 258.2L904.8 276.5Q904.8 278.2 903.8 279.2Q902.9 280.2 901.3 280.2L901.3 280.2Q899.7 280.2 898.8 279.3Q897.9 278.4 897.8 276.8L897.8 276.8L897.8 274.6L897.6 274.6Q896.3 277.1 893.7 278.6Q891.0 280.1 887.9 280.1ZM890.2 274.6L890.2 274.6Q893.3 274.6 895.4 272.7Q897.6 270.8 897.6 268.1L897.6 268.1L897.6 265.7L890.4 266.1Q887.8 266.3 886.3 267.4Q884.9 268.6 884.9 270.4L884.9 270.4Q884.9 272.3 886.3 273.4Q887.8 274.6 890.2 274.6ZM921.9 267.4L921.9 267.4Q920.2 267.4 919.3 266.4Q918.4 265.4 918.4 263.7L918.4 263.7L918.4 263.2Q918.4 260.5 919.7 258.6Q921.1 256.6 923.9 255.0L923.9 255.0Q926.6 253.3 927.7 251.9Q928.8 250.5 928.8 248.3L928.8 248.3Q928.8 245.9 927.1 244.4Q925.4 242.9 922.7 242.9L922.7 242.9Q917.7 242.9 916.3 247.5L916.3 247.5Q915.4 250.0 913.0 250.0L913.0 250.0Q911.4 250.0 910.6 249.2Q909.7 248.3 909.7 246.9L909.7 246.9Q909.7 245.0 910.6 243.4L910.6 243.4Q911.9 240.4 915.2 238.7Q918.5 237.0 923.0 237.0L923.0 237.0Q928.9 237.0 932.6 240.0Q936.4 243.1 936.4 248.1L936.4 248.1Q936.4 254.3 930.2 258.0L930.2 258.0Q927.3 259.7 926.3 261.0Q925.3 262.3 925.1 264.3L925.1 264.3Q924.7 267.4 921.9 267.4ZM924.9 278.9Q923.7 280.2 921.9 280.2Q920.1 280.2 918.9 278.9Q917.6 277.7 917.6 276.0Q917.6 274.3 918.9 273.1Q920.1 271.9 921.9 271.9Q923.7 271.9 924.9 273.1Q926.2 274.3 926.2 276.0Q926.2 277.7 924.9 278.9Z "/><defs><clipPath id="satori_bc-id-0-1"><rect x="0" y="441" width="1200" height="189"/></clipPath></defs><mask id="satori_om-id-0-1"><rect x="0" y="442" width="1200" height="188" fill="#fff"/><path width="1200" height="189" fill="none" stroke="#000" stroke-width="2" d="M0,441 A0,0 0 0 1 0,441 h1200 A0,0 0 0 1 1200,441"/></mask><path width="1200" height="189" clip-path="url(#satori_bc-id-0-1)" fill="none" stroke="#dbdbdb" stroke-width="2" d="M0,441 A0,0 0 0 1 0,441 h1200 A0,0 0 0 1 1200,441"/><mask id="satori_om-id-0-1-0"><rect x="40" y="482" width="331" height="108" fill="#fff"/></mask><clipPath id="satori_cp-id-0-1-0-0"><rect x="40" y="504" width="64" height="64"/></clipPath><mask id="satori_om-id-0-1-0-0"><rect x="40" y="504" width="64" height="64" fill="#fff"/></mask><image x="40" y="504" width="64" height="64" href="data:image/svg+xml;utf8,%3Csvg  xmlns=%22http://www.w3.org/2000/svg%22 width=%2264%22 height=%2264%22 viewBox=%220 0 128 128%22%3E%3Cpath fill=%22%23224d67%22 d=%22M22.5 14.8c2.9 1.3 99 44 99 44c2.7 1.2 2.9 3.1 2 12.4c-1 10.5-1.9 37.8-40.2 42.9c-24.6 3.2-55.9-4.3-70.9-27.2C-6 58.8 11 23.4 14.8 17.7c2.4-3.5 4.8-4.2 7.7-2.9%22%3E%3C/path%3E%3Cpath fill=%22%23f0f4c3%22 d=%22M121.5 58.8c-.3-.2-92-40.8-98.9-43.9C9.6 31.5-3.8 76 27.9 96.2c33.6 21.5 78.7-10.2 93.6-37.4%22%3E%3C/path%3E%3Cpath fill=%22%23f0f4c3%22 d=%22M117.7 57c-.3-.2-86.7-38.4-93.2-41.3c-12.2 15.5-23.9 59.1 5.7 78c31.4 20.2 73.6-11.2 87.5-36.7%22%3E%3C/path%3E%3Cpath fill=%22%23cb2a42%22 d=%22M56.2 37.6L19.5 48.2c-2.5.8-4.4 2.8-5 5.3c-1.9 8.5.8 23.3 8.9 29.8c3.5 2.7 8.6 1.8 10.8-2.1L58.5 41c1.3-1.7.5-4.2-2.3-3.4m14.3 2.9s14.6 30.1 16 33s6.3 4.7 9.9 2.8c10.7-5.6 15.5-12.4 19.2-20.2c-8.9-3.9-42.4-18.8-42.4-18.8c-2.4-1.1-4 .6-2.7 3.2m-8.6 1.9C60.3 45.1 39.5 81 37.6 84.1c-1.9 3.2-.7 7.5 2.7 9.2c12.3 6.5 30.9.4 39.6-7c2.2-1.9 4.5-5.1 3.2-8.2S68.9 44.6 67.8 42.3c-1.2-2.7-4.1-2.8-5.9.1%22%3E%3C/path%3E%3Cpath fill=%22%23f0f4c3%22 d=%22M52.2 42.2c-1.4.4-10.1 3-11.1 3.4c-1.4.5-2.2 1.7-1.9 2.5c.3.9 1.7 1.1 3.1.6c.8-.3 7.1-3.9 9.5-5.2c-3.1 2.4-10.2 9.4-11.1 10.3c-1.4 1.5-1.7 3.4-.8 4.3c1 .9 2.9.5 4.3-1c1.2-1.3 8.5-12.8 9.1-13.9s.4-1.4-1.1-1m10.1 16.4c0-2.2 1.4-10.3 1.8-12.3c.4-1.6 1.5-1.8 1.8.5s1.7 9.7 1.7 11.8s-1.2 3.3-2.7 3.3c-1.4 0-2.6-1.1-2.6-3.3M79.9 49c-1.2-1.8-3.3-4.9-4.1-6.1c-.7-1.2.1-2.1 1.8-.9s4 2.9 5.4 4c1.6 1.3 1.9 3 .8 4s-2.7.8-3.9-1%22%3E%3C/path%3E%3Cellipse cx=%2287.3%22 cy=%22103.12%22 fill=%22%23cb2a42%22 rx=%223.4%22 ry=%222.3%22 transform=%22rotate(-27.098 87.298 103.126)%22%3E%3C/ellipse%3E%3Cellipse cx=%2298.89%22 cy=%22103.82%22 fill=%22%23cb2a42%22 rx=%223.4%22 ry=%222.3%22 transform=%22rotate(-30.642 98.887 103.818)%22%3E%3C/ellipse%3E%3Cellipse cx=%22102.02%22 cy=%2293.8%22 fill=%22%23cb2a42%22 rx=%223.4%22 ry=%222.3%22 transform=%22rotate(-37.16 102.017 93.797)%22%3E%3C/ellipse%3E%3Cpath fill=%22%23cb2a42%22 d=%22M57.6 30.3c-8.3-3.7-24.4-10.7-29.6-13c-3.6 2.2-9.7 11.4-11.2 21.2c-.6 3.6 1.7 5.9 5.3 4.9c0 0 33.7-9.3 35.3-9.7c1.6-.5 2-2.6.2-3.4%22%3E%3C/path%3E%3C/svg%3E" preserveAspectRatio="none" clip-path="url(#satori_cp-id-0-1-0-0)" mask="url(#satori_om-id-0-1-0-0)"/><mask id="satori_om-id-0-1-0-0-0"><rect x="40" y="504" width="0" height="64" fill="#fff"/></mask><mask id="satori_om-id-0-1-0-0-1"><rect x="40" y="504" width="0" height="64" fill="#fff"/></mask><mask id="satori_om-id-0-1-0-0-2"><rect x="40" y="504" width="0" height="64" fill="#fff"/></mask><mask id="satori_om-id-0-1-0-0-3"><rect x="40" y="504" width="0" height="64" fill="#fff"/></mask><mask id="satori_om-id-0-1-0-0-4"><rect x="40" y="504" width="0" height="64" fill="#fff"/></mask><mask id="satori_om-id-0-1-0-0-5"><rect x="40" y="504" width="0" height="64" fill="#fff"/></mask><mask id="satori_om-id-0-1-0-0-6"><rect x="40" y="504" width="0" height="64" fill="#fff"/></mask><mask id="satori_om-id-0-1-0-0-7"><rect x="40" y="504" width="0" height="64" fill="#fff"/></mask><mask id="satori_om-id-0-1-0-0-8"><rect x="40" y="504" width="0" height="64" fill="#fff"/></mask><mask id="satori_om-id-0-1-0-1"><rect x="116" y="512" width="255" height="48" fill="#fff"/></mask><path fill="#545454" d="M132.9 552.6Q131.9 553.6 130.3 553.6Q128.8 553.6 127.8 552.6Q126.8 551.6 126.8 550.0L126.8 550.0L126.8 525.8L126.7 525.8L121.7 529.3Q120.9 529.9 119.9 529.9L119.9 529.9Q118.8 529.9 118.1 529.2Q117.4 528.5 117.4 527.4L117.4 527.4Q117.4 525.8 118.9 524.7L118.9 524.7L125.6 520.1Q126.8 519.3 127.7 519.0Q128.6 518.7 129.8 518.7L129.8 518.7Q131.7 518.7 132.8 519.8Q133.8 520.9 133.8 522.7L133.8 522.7L133.8 550.0Q133.8 551.6 132.9 552.6ZM163.4 553.1L144.7 553.1Q143.1 553.1 142.2 552.2Q141.4 551.4 141.4 550.0L141.4 550.0Q141.4 549.1 141.8 548.3Q142.3 547.5 143.3 546.5L143.3 546.5L153.4 536.9Q156.5 533.8 157.6 532.2Q158.7 530.6 158.7 528.8L158.7 528.8Q158.7 526.7 157.2 525.3Q155.8 524 153.5 524L153.5 524Q149.5 524 147.7 528.1L147.7 528.1Q147.1 529.2 146.3 529.7Q145.6 530.1 144.5 530.1L144.5 530.1Q143.1 530.1 142.3 529.4Q141.5 528.6 141.5 527.3L141.5 527.3Q141.5 526.5 141.8 525.7L141.8 525.7Q142.7 522.7 145.8 520.6Q149 518.5 153.5 518.5L153.5 518.5Q158.9 518.5 162.2 521.2Q165.5 524.0 165.5 528.3L165.5 528.3Q165.5 529.9 165.2 531.2Q164.8 532.5 163.8 533.9Q162.9 535.3 161.5 536.8Q160.2 538.2 158 540.3L158 540.3L150.7 547.3L150.7 547.4L163.4 547.4Q164.8 547.4 165.6 548.2Q166.4 549.0 166.4 550.3L166.4 550.3Q166.4 551.5 165.6 552.3Q164.8 553.1 163.4 553.1L163.4 553.1ZM182.9 553.8L182.9 553.8Q178.4 553.8 175.3 552.1Q172.2 550.4 170.9 547.7L170.9 547.7Q170.4 546.6 170.4 545.5L170.4 545.5Q170.4 544.1 171.2 543.3Q172.1 542.5 173.5 542.5L173.5 542.5Q175.5 542.5 176.5 544.3L176.5 544.3Q177.5 546.2 179.0 547.2Q180.5 548.1 183.1 548.1L183.1 548.1Q185.7 548.1 187.3 546.8Q188.9 545.4 188.9 543.3L188.9 543.3Q188.9 540.9 187.2 539.5Q185.5 538.2 182.4 538.2L182.4 538.2L180.9 538.2Q179.7 538.2 179.0 537.5Q178.3 536.8 178.3 535.6L178.3 535.6Q178.3 534.5 179.0 533.8Q179.7 533.1 180.9 533.1L180.9 533.1L182.3 533.1Q185.0 533.1 186.6 531.8Q188.2 530.5 188.2 528.5Q188.2 526.4 186.8 525.1Q185.4 523.9 182.9 523.9L182.9 523.9Q180.8 523.9 179.4 524.8Q178.1 525.7 177.2 527.5L177.2 527.5Q176.6 528.7 175.9 529.2Q175.2 529.7 174.0 529.7L174.0 529.7Q172.6 529.7 171.8 528.9Q171.1 528.1 171.1 526.8L171.1 526.8Q171.1 525.7 171.6 524.6L171.6 524.6Q172.8 521.9 175.7 520.2Q178.6 518.5 182.9 518.5L182.9 518.5Q188.3 518.5 191.6 520.9Q194.9 523.4 194.9 527.4L194.9 527.4Q194.9 530.6 192.9 532.6Q190.9 534.7 187.8 535.4L187.8 535.4L187.8 535.5Q191.6 535.9 193.9 538.0Q196.1 540.1 196.1 543.6L196.1 543.6Q196.1 548.2 192.5 551Q188.8 553.8 182.9 553.8ZM206.4 561.1Q205.4 562.0 203.9 562.0Q202.3 562.0 201.4 561.1Q200.4 560.2 200.4 558.5L200.4 558.5L200.4 530.9Q200.4 529.3 201.4 528.3Q202.3 527.4 203.8 527.4Q205.3 527.4 206.3 528.3Q207.2 529.3 207.2 531.0L207.2 531.0L207.2 532.3L207.3 532.3Q208.4 530.1 210.4 528.8Q212.4 527.5 215.1 527.5L215.1 527.5Q219.9 527.5 222.7 531.0Q225.4 534.4 225.4 540.5L225.4 540.5Q225.4 546.5 222.7 550.0Q220.0 553.5 215.2 553.5L215.2 553.5Q212.5 553.5 210.5 552.2Q208.4 551 207.4 548.8L207.4 548.8L207.3 548.8L207.3 558.5Q207.3 560.2 206.4 561.1ZM212.8 548.0L212.8 548.0Q215.4 548.0 216.9 545.9Q218.4 543.9 218.4 540.5Q218.4 537.1 216.9 535.1Q215.4 533.0 212.8 533.0L212.8 533.0Q210.3 533.0 208.8 535.1Q207.3 537.1 207.3 540.5L207.3 540.5Q207.3 543.9 208.8 545.9Q210.3 548.0 212.8 548.0ZM249.5 550.1Q246.2 553.6 240.5 553.6Q234.7 553.6 231.4 550.1Q228.0 546.6 228.0 540.5L228.0 540.5Q228.0 534.4 231.4 530.9Q234.8 527.4 240.5 527.4L240.5 527.4Q246.1 527.4 249.5 530.9Q252.9 534.4 252.9 540.5L252.9 540.5Q252.9 546.6 249.5 550.1ZM240.5 548.4L240.5 548.4Q243.0 548.4 244.5 546.3Q245.9 544.3 245.9 540.5L245.9 540.5Q245.9 536.8 244.5 534.7Q243.0 532.6 240.5 532.6Q237.9 532.6 236.4 534.7Q234.9 536.8 234.9 540.5L234.9 540.5Q234.9 544.3 236.4 546.3Q237.9 548.4 240.5 548.4ZM259.8 553.6L259.8 553.6Q258.3 553.6 257.3 552.6Q256.4 551.7 256.4 550.0L256.4 550.0L256.4 530.9Q256.4 529.3 257.3 528.3Q258.2 527.4 259.7 527.4L259.7 527.4Q261.2 527.4 262.1 528.3Q263.0 529.3 263.0 530.9L263.0 530.9L263.0 532.5L263.1 532.5Q263.6 530.2 265.0 528.9Q266.4 527.5 268.3 527.5L268.3 527.5Q269.7 527.5 270.5 528.2L270.5 528.2Q271.4 528.9 271.4 530.7L271.4 530.7Q271.4 532.3 270.5 533.2L270.5 533.2Q269.4 534.0 267.5 534.1L267.5 534.1Q265.2 534.1 264.2 535.3Q263.3 536.5 263.3 538.8L263.3 538.8L263.3 550.0Q263.3 551.7 262.3 552.6Q261.4 553.6 259.8 553.6ZM276.7 553.5L276.7 553.5Q275.1 553.5 274.1 552.6Q273.1 551.7 273.1 550.2L273.1 550.2Q273.1 549.3 273.6 547.9L273.6 547.9L282.8 522.8Q283.6 520.7 284.9 519.7Q286.2 518.8 288.1 518.8L288.1 518.8Q290.2 518.8 291.5 519.7Q292.8 520.7 293.6 522.8L293.6 522.8L302.8 547.9Q303.3 549.2 303.3 550.2L303.3 550.2Q303.3 551.6 302.3 552.6Q301.3 553.5 299.8 553.5L299.8 553.5Q298.3 553.5 297.4 552.8Q296.5 552.1 296.1 550.4L296.1 550.4L294.3 545.0L282.1 545.0L280.3 550.3Q279.8 552.0 279.0 552.8Q278.1 553.5 276.7 553.5ZM288.0 525.7L283.6 539.6L292.6 539.6L288.2 525.7L288.0 525.7ZM313.1 552.6Q312.1 553.6 310.6 553.6Q309.0 553.6 308.1 552.6Q307.2 551.7 307.2 550.0L307.2 550.0L307.2 522.3Q307.2 520.6 308.1 519.7Q309.0 518.7 310.6 518.7Q312.1 518.7 313.1 519.7Q314 520.6 314 522.3L314 522.3L314 550.0Q314 551.7 313.1 552.6ZM326.0 553.5L326.0 553.5Q322.4 553.5 320.0 551.3Q317.6 549.2 317.6 545.8L317.6 545.8Q317.6 542.4 320.2 540.5Q322.7 538.5 327.4 538.3L327.4 538.3L333.8 537.9L333.8 536.2Q333.8 534.5 332.6 533.5Q331.5 532.5 329.5 532.5L329.5 532.5Q328.0 532.5 326.9 533.1Q325.8 533.7 324.7 535.2L324.7 535.2Q323.5 536.4 321.9 536.4L321.9 536.4Q320.7 536.4 319.9 535.7Q319.1 534.9 319.1 533.8L319.1 533.8Q319.1 533.0 319.4 532.3L319.4 532.3Q320.3 530 323.1 528.7Q325.9 527.4 329.8 527.4L329.8 527.4Q334.7 527.4 337.6 529.7Q340.5 532.0 340.5 535.8L340.5 535.8L340.5 550.1Q340.5 551.8 339.6 552.7Q338.7 553.6 337.2 553.6L337.2 553.6Q335.7 553.6 334.8 552.8Q334.0 552.0 333.9 550.5L333.9 550.5L333.9 549.2L333.7 549.2Q332.7 551.2 330.6 552.3Q328.5 553.5 326.0 553.5ZM328.3 548.5L328.3 548.5Q330.6 548.5 332.2 547.2Q333.8 545.9 333.8 543.9L333.8 543.9L333.8 542.0L328.5 542.4Q326.5 542.5 325.5 543.3Q324.5 544.1 324.5 545.5L324.5 545.5Q324.5 546.9 325.5 547.7Q326.6 548.5 328.3 548.5ZM350.8 552.6Q349.9 553.6 348.3 553.6Q346.8 553.6 345.8 552.6Q344.9 551.7 344.9 550.0L344.9 550.0L344.9 530.9Q344.9 529.3 345.8 528.3Q346.6 527.4 348.2 527.4Q349.7 527.4 350.7 528.4Q351.6 529.3 351.6 530.9L351.6 530.9L351.6 532.3L351.8 532.3Q353.8 527.5 359.5 527.5L359.5 527.5Q363.7 527.5 365.9 530.0Q368.2 532.4 368.2 536.9L368.2 536.9L368.2 550.0Q368.2 551.7 367.3 552.6Q366.3 553.6 364.8 553.6Q363.2 553.6 362.3 552.6Q361.4 551.7 361.4 550.0L361.4 550.0L361.4 538.3Q361.4 535.8 360.2 534.5Q359.0 533.1 356.8 533.1Q354.5 533.1 353.1 534.7Q351.7 536.2 351.7 538.6L351.7 538.6L351.7 550.0Q351.7 551.7 350.8 552.6Z "/><mask id="satori_om-id-0-1-1"><rect x="951" y="524" width="209" height="36" fill="#fff"/></mask><path fill="#8e8e8e" d="M954.9 552.6Q954.5 552.9 954.0 552.9Q953.4 552.9 953.1 552.6Q952.8 552.2 952.8 551.7L952.8 551.7L952.8 532.6Q952.8 532.0 953.1 531.6Q953.5 531.3 954.1 531.3Q954.6 531.3 955.0 531.6Q955.3 532.0 955.3 532.6L955.3 532.6L955.3 540.0L955.4 540.0Q956.1 538.7 957.4 537.9Q958.7 537.2 960.3 537.2L960.3 537.2Q963.2 537.2 964.9 539.3Q966.7 541.5 966.7 545.0L966.7 545.0Q966.7 548.6 964.9 550.8Q963.2 552.9 960.2 552.9L960.2 552.9Q958.6 552.9 957.3 552.2Q956.0 551.4 955.3 550.1L955.3 550.1L955.2 550.1L955.2 551.7Q955.2 552.2 954.9 552.6ZM959.7 550.7L959.7 550.7Q961.8 550.7 962.9 549.2Q964.1 547.7 964.1 545.0L964.1 545.0Q964.1 542.5 962.9 540.9Q961.8 539.4 959.7 539.4L959.7 539.4Q957.8 539.4 956.6 541.0Q955.3 542.5 955.3 545.0L955.3 545.0Q955.3 547.6 956.6 549.1Q957.8 550.7 959.7 550.7ZM970.8 558.4L970.8 558.4Q969.9 558.4 969.4 558.0Q968.9 557.7 968.9 557.1L968.9 557.1Q968.9 556.7 969.1 556.4Q969.4 556.2 969.9 556.2L969.9 556.2Q970.1 556.2 970.3 556.2Q970.5 556.2 970.7 556.2L970.7 556.2Q972.4 556.2 973.2 553.7L973.2 553.7L973.6 552.7L968.3 539.0Q968.2 538.6 968.2 538.3L968.2 538.3Q968.2 537.8 968.6 537.5Q968.9 537.2 969.5 537.2L969.5 537.2Q970.4 537.2 970.7 538.1L970.7 538.1L974.9 550.1L975.0 550.1L979.2 538.1Q979.3 537.6 979.6 537.4Q979.9 537.2 980.4 537.2L980.4 537.2Q980.9 537.2 981.3 537.5Q981.6 537.8 981.6 538.3L981.6 538.3Q981.6 538.6 981.5 539.0L981.5 539.0L975.9 553.7Q974.9 556.4 973.8 557.4Q972.7 558.4 970.8 558.4Z M990.5 552.9L990.5 552.9Q989.9 552.9 989.5 552.5Q989.2 552.2 989.2 551.7L989.2 551.7Q989.2 551.4 989.3 551.0L989.3 551.0L996.1 532.6Q996.6 531.3 997.8 531.3L997.8 531.3Q999.0 531.3 999.5 532.6L999.5 532.6L1006.3 551.0Q1006.5 551.4 1006.5 551.7L1006.5 551.7Q1006.5 552.2 1006.1 552.5Q1005.7 552.9 1005.2 552.9L1005.2 552.9Q1004.2 552.9 1003.9 551.9L1003.9 551.9L1002.0 546.6L993.6 546.6L991.8 551.9Q991.4 552.9 990.5 552.9ZM997.8 534.7L994.4 544.4L1001.2 544.4L997.9 534.7L997.8 534.7ZM1011.1 552.5Q1010.8 552.9 1010.2 552.9Q1009.7 552.9 1009.3 552.5Q1008.9 552.2 1008.9 551.6L1008.9 551.6L1008.9 538.5Q1008.9 537.9 1009.3 537.5Q1009.6 537.2 1010.1 537.2Q1010.7 537.2 1011 537.5Q1011.3 537.9 1011.3 538.5L1011.3 538.5L1011.3 539.9L1011.4 539.9Q1011.7 538.7 1012.7 537.9Q1013.7 537.2 1014.9 537.2L1014.9 537.2Q1015.7 537.2 1016.1 537.5L1016.1 537.5Q1016.4 537.8 1016.4 538.4L1016.4 538.4Q1016.4 539.0 1016.0 539.3L1016.0 539.3Q1015.6 539.6 1014.8 539.6L1014.8 539.6Q1013.1 539.6 1012.3 540.6Q1011.5 541.6 1011.5 543.2L1011.5 543.2L1011.5 551.6Q1011.5 552.2 1011.1 552.5ZM1019.0 549.1L1019.0 549.1L1019.0 539.5L1017.7 539.5Q1017.2 539.5 1016.9 539.3Q1016.6 539.0 1016.6 538.5L1016.6 538.5Q1016.6 538.0 1016.9 537.7Q1017.2 537.4 1017.7 537.4L1017.7 537.4L1019.0 537.4L1019.0 534.8Q1019.0 534.2 1019.4 533.8Q1019.7 533.5 1020.3 533.5Q1020.8 533.5 1021.2 533.8Q1021.5 534.2 1021.5 534.8L1021.5 534.8L1021.5 537.4L1023.5 537.4Q1024.1 537.4 1024.4 537.7Q1024.7 538.0 1024.7 538.5L1024.7 538.5Q1024.7 539.0 1024.4 539.3Q1024.1 539.5 1023.5 539.5L1023.5 539.5L1021.5 539.5L1021.5 548.6Q1021.5 549.6 1021.9 550.0Q1022.3 550.5 1023.3 550.6L1023.3 550.6L1023.5 550.6Q1024.7 550.7 1024.7 551.6L1024.7 551.6Q1024.7 552.2 1024.3 552.5Q1023.9 552.8 1022.9 552.8L1022.9 552.8L1022.7 552.8Q1019.0 552.8 1019.0 549.1ZM1033.6 552.9L1033.6 552.9Q1030.2 552.9 1028.4 550.9Q1026.5 548.8 1026.5 545.1L1026.5 545.1Q1026.5 541.5 1028.4 539.3Q1030.2 537.2 1033.4 537.2L1033.4 537.2Q1036.3 537.2 1038.2 539.1Q1040.0 541.1 1040.0 544.3L1040.0 544.3Q1040.0 544.9 1039.6 545.3Q1039.3 545.7 1038.6 545.7L1038.6 545.7L1029.1 545.7Q1029.1 548.0 1030.3 549.4Q1031.5 550.7 1033.5 550.7L1033.5 550.7Q1034.9 550.7 1035.8 550.2Q1036.7 549.6 1037.6 548.3L1037.6 548.3Q1038.0 547.8 1038.6 547.8L1038.6 547.8Q1039.1 547.8 1039.4 548.1Q1039.7 548.4 1039.7 548.9L1039.7 548.9Q1039.7 549.2 1039.5 549.7L1039.5 549.7Q1038.8 551.2 1037.2 552.1Q1035.7 552.9 1033.6 552.9ZM1029.1 543.7L1029.1 543.7L1037.4 543.7Q1037.3 541.8 1036.2 540.6Q1035.1 539.4 1033.3 539.4L1033.3 539.4Q1031.6 539.4 1030.4 540.6Q1029.2 541.8 1029.1 543.7ZM1044.8 552.5Q1044.4 552.9 1043.9 552.9Q1043.3 552.9 1042.9 552.5Q1042.6 552.2 1042.6 551.6L1042.6 551.6L1042.6 538.5Q1042.6 537.9 1042.9 537.5Q1043.3 537.2 1043.8 537.2Q1044.3 537.2 1044.6 537.5Q1045.0 537.9 1045.0 538.5L1045.0 538.5L1045.0 539.9L1045.0 539.9Q1045.6 538.6 1046.7 537.9Q1047.9 537.2 1049.4 537.2L1049.4 537.2Q1050.9 537.2 1052.0 537.9Q1053.1 538.7 1053.6 540.1L1053.6 540.1L1053.7 540.1Q1054.3 538.7 1055.6 537.9Q1056.9 537.2 1058.5 537.2L1058.5 537.2Q1060.7 537.2 1062.1 538.5Q1063.4 539.9 1063.4 542.1L1063.4 542.1L1063.4 551.6Q1063.4 552.2 1063.1 552.5Q1062.7 552.9 1062.2 552.9Q1061.6 552.9 1061.2 552.5Q1060.9 552.2 1060.9 551.6L1060.9 551.6L1060.9 542.7Q1060.9 541.2 1060.1 540.3Q1059.2 539.4 1057.7 539.4Q1056.2 539.4 1055.3 540.4Q1054.3 541.4 1054.3 543.0L1054.3 543.0L1054.3 551.6Q1054.3 552.2 1053.9 552.5Q1053.6 552.9 1053.0 552.9Q1052.4 552.9 1052.1 552.5Q1051.7 552.2 1051.7 551.6L1051.7 551.6L1051.7 542.5Q1051.7 541.1 1050.9 540.2Q1050.0 539.4 1048.6 539.4L1048.6 539.4Q1047.1 539.4 1046.1 540.5Q1045.1 541.5 1045.1 543.1L1045.1 543.1L1045.1 551.6Q1045.1 552.2 1044.8 552.5Z M1075.5 552.5Q1075.1 552.9 1074.5 552.9Q1073.9 552.9 1073.6 552.5Q1073.2 552.1 1073.2 551.5L1073.2 551.5L1073.2 532.7Q1073.2 532.1 1073.6 531.7Q1073.9 531.3 1074.5 531.3Q1075.1 531.3 1075.5 531.7Q1075.9 532.1 1075.9 532.7L1075.9 532.7L1075.9 541.8L1076.0 541.8L1085.4 531.8Q1085.9 531.3 1086.5 531.3L1086.5 531.3Q1087.0 531.3 1087.3 531.7Q1087.7 532.0 1087.7 532.5L1087.7 532.5Q1087.7 533.0 1087.3 533.3L1087.3 533.3L1080.1 540.9L1088.2 550.6Q1088.5 551.1 1088.5 551.6L1088.5 551.6Q1088.5 552.2 1088.2 552.5Q1087.8 552.9 1087.3 552.9L1087.3 552.9Q1086.6 552.9 1086.1 552.2L1086.1 552.2L1078.2 542.8L1075.9 545.3L1075.9 551.5Q1075.9 552.1 1075.5 552.5ZM1096.5 552.9L1096.5 552.9Q1094.0 552.9 1092.6 551.4Q1091.2 549.9 1091.2 547.3L1091.2 547.3L1091.2 538.5Q1091.2 537.9 1091.6 537.5Q1091.9 537.2 1092.5 537.2Q1093.0 537.2 1093.4 537.5Q1093.8 537.9 1093.8 538.5L1093.8 538.5L1093.8 546.9Q1093.8 550.7 1097.3 550.7L1097.3 550.7Q1099.1 550.7 1100.2 549.5Q1101.2 548.3 1101.2 546.4L1101.2 546.4L1101.2 538.5Q1101.2 537.9 1101.6 537.5Q1102.0 537.2 1102.5 537.2Q1103.1 537.2 1103.4 537.5Q1103.8 537.9 1103.8 538.5L1103.8 538.5L1103.8 551.6Q1103.8 552.2 1103.5 552.6Q1103.1 552.9 1102.6 552.9Q1102.1 552.9 1101.7 552.6Q1101.4 552.2 1101.4 551.6L1101.4 551.6L1101.4 550.2L1101.3 550.2Q1099.9 552.9 1096.5 552.9ZM1107.9 549.1L1107.9 549.1L1107.9 539.5L1106.6 539.5Q1106.1 539.5 1105.8 539.3Q1105.5 539.0 1105.5 538.5L1105.5 538.5Q1105.5 538.0 1105.8 537.7Q1106.1 537.4 1106.6 537.4L1106.6 537.4L1107.9 537.4L1107.9 534.8Q1107.9 534.2 1108.3 533.8Q1108.6 533.5 1109.2 533.5Q1109.7 533.5 1110.1 533.8Q1110.5 534.2 1110.5 534.8L1110.5 534.8L1110.5 537.4L1112.4 537.4Q1113.0 537.4 1113.3 537.7Q1113.6 538.0 1113.6 538.5L1113.6 538.5Q1113.6 539.0 1113.3 539.3Q1113.0 539.5 1112.4 539.5L1112.4 539.5L1110.5 539.5L1110.5 548.6Q1110.5 549.6 1110.9 550.0Q1111.3 550.5 1112.2 550.6L1112.2 550.6L1112.4 550.6Q1113.6 550.7 1113.6 551.6L1113.6 551.6Q1113.6 552.2 1113.2 552.5Q1112.8 552.8 1111.8 552.8L1111.8 552.8L1111.6 552.8Q1107.9 552.8 1107.9 549.1ZM1121.4 552.9L1121.4 552.9Q1119.4 552.9 1117.9 552.1Q1116.4 551.2 1115.9 549.8L1115.9 549.8Q1115.7 549.5 1115.7 549.2L1115.7 549.2Q1115.7 548.7 1116.1 548.4Q1116.4 548.2 1116.9 548.2L1116.9 548.2Q1117.6 548.2 1118.0 548.9L1118.0 548.9Q1118.6 550.0 1119.4 550.4Q1120.2 550.8 1121.6 550.8L1121.6 550.8Q1123.1 550.8 1124.0 550.2Q1124.9 549.6 1124.9 548.6L1124.9 548.6Q1124.9 547.7 1124.4 547.3Q1123.8 546.8 1122.5 546.5L1122.5 546.5L1120.2 545.9Q1115.9 544.8 1115.9 541.6L1115.9 541.6Q1115.9 539.6 1117.5 538.4Q1119.0 537.2 1121.6 537.2L1121.6 537.2Q1123.5 537.2 1125.0 538.1Q1126.5 539.0 1126.8 540.4L1126.8 540.4Q1126.8 540.6 1126.8 540.8L1126.8 540.8Q1126.8 541.2 1126.5 541.5Q1126.3 541.8 1125.8 541.8L1125.8 541.8Q1125.0 541.8 1124.7 541.1L1124.7 541.1Q1124.2 540.1 1123.4 539.7Q1122.7 539.3 1121.5 539.3L1121.5 539.3Q1120.1 539.3 1119.2 539.9Q1118.4 540.5 1118.4 541.5L1118.4 541.5Q1118.4 543.1 1120.9 543.7L1120.9 543.7L1123.1 544.2Q1125.5 544.8 1126.5 545.8Q1127.5 546.7 1127.5 548.4L1127.5 548.4Q1127.5 550.4 1125.8 551.7Q1124.1 552.9 1121.4 552.9ZM1134.5 552.9L1134.5 552.9Q1132.3 552.9 1130.9 551.7Q1129.5 550.4 1129.5 548.4L1129.5 548.4Q1129.5 546.4 1130.9 545.2Q1132.3 544.1 1135.0 543.9L1135.0 543.9L1139.4 543.7L1139.4 542.4Q1139.4 541.0 1138.5 540.2Q1137.6 539.4 1136.0 539.4L1136.0 539.4Q1134.8 539.4 1133.9 539.9Q1133.0 540.4 1132.4 541.5L1132.4 541.5Q1132.1 542.1 1131.3 542.1L1131.3 542.1Q1130.8 542.1 1130.5 541.8Q1130.2 541.5 1130.2 541.0Q1130.2 540.5 1130.5 539.9L1130.5 539.9Q1131.2 538.7 1132.7 537.9Q1134.2 537.2 1136.1 537.2L1136.1 537.2Q1138.8 537.2 1140.3 538.5Q1141.9 539.9 1141.9 542.1L1141.9 542.1L1141.9 551.6Q1141.9 552.2 1141.6 552.6Q1141.2 552.9 1140.7 552.9L1140.7 552.9Q1140.2 552.9 1139.8 552.6Q1139.5 552.2 1139.5 551.6L1139.5 551.6L1139.5 550.0L1139.4 550.0Q1138.8 551.3 1137.4 552.1Q1136.1 552.9 1134.5 552.9ZM1135.1 550.8L1135.1 550.8Q1136.9 550.8 1138.1 549.6Q1139.4 548.5 1139.4 546.9L1139.4 546.9L1139.4 545.6L1135.3 545.9Q1133.7 546.0 1132.9 546.6Q1132.1 547.3 1132.1 548.4Q1132.1 549.4 1132.9 550.1Q1133.7 550.8 1135.1 550.8ZM1147.3 552.5Q1147.0 552.9 1146.4 552.9Q1145.9 552.9 1145.5 552.5Q1145.2 552.2 1145.2 551.6L1145.2 551.6L1145.2 538.5Q1145.2 537.9 1145.5 537.5Q1145.8 537.2 1146.4 537.2Q1146.9 537.2 1147.2 537.5Q1147.6 537.9 1147.6 538.5L1147.6 538.5L1147.6 539.9L1147.6 539.9Q1148.3 538.6 1149.5 537.9Q1150.7 537.2 1152.4 537.2L1152.4 537.2Q1154.9 537.2 1156.3 538.7Q1157.7 540.2 1157.7 542.8L1157.7 542.8L1157.7 551.6Q1157.7 552.2 1157.4 552.5Q1157.0 552.9 1156.4 552.9Q1155.9 552.9 1155.5 552.5Q1155.2 552.2 1155.2 551.6L1155.2 551.6L1155.2 543.2Q1155.2 541.4 1154.3 540.4Q1153.4 539.4 1151.7 539.4L1151.7 539.4Q1149.9 539.4 1148.8 540.6Q1147.7 541.8 1147.7 543.7L1147.7 543.7L1147.7 551.6Q1147.7 552.2 1147.3 552.5Z "/></svg>